<?xml version="1.0" encoding="UTF-8"?><svg id="Camada_1" xmlns="http://www.w3.org/2000/svg" viewBox="0 0 1920 1080"><defs><style>.cls-1{opacity:.4;}.cls-2{fill:#f8f8fc;}.cls-2,.cls-3{stroke-width:0px;}.cls-3{fill:#fff;}</style></defs><g class="cls-1"><path class="cls-2" d="M633,396.88c-9.61-9.6-25.18-9.6-34.79,0l-32.88,32.9c-9.61,9.6-9.61,25.18,0,34.78,9.6,9.61,25.19,9.61,34.79,0l32.88-32.88c9.61-9.62,9.61-25.18,0-34.8"/><path class="cls-2" d="M281.27,748.61c-9.62-9.6-25.19-9.6-34.8,0l-17.2,17.21c-9.6,9.6-9.6,25.18,0,34.78,9.61,9.61,25.19,9.61,34.79,0l17.21-17.2c9.61-9.61,9.61-25.18,0-34.79"/><path class="cls-2" d="M520.33,282.01c-9.6-9.6-25.19-9.6-34.79,0l-17.21,17.21c-9.61,9.6-9.61,25.18,0,34.78,9.6,9.62,25.18,9.62,34.79,0l17.21-17.2c9.61-9.61,9.61-25.18,0-34.79"/><path class="cls-2" d="M92.45,594.8c-9.61-9.61-9.61-25.18,0-34.79l5.79-5.8c9.61-9.61,25.19-9.61,34.8,0,9.6,9.61,9.6,25.19,0,34.8l-5.8,5.8c-9.61,9.61-25.18,9.61-34.79,0"/><path class="cls-2" d="M151.76,422.14c-9.61-9.6-9.61-25.19,0-34.79l75.39-75.39c9.6-9.6,25.19-9.6,34.79,0,9.6,9.61,9.6,25.19,0,34.79l-75.38,75.39c-9.62,9.61-25.19,9.61-34.8,0"/><path class="cls-2" d="M269.18,304.71c-9.6-9.61-9.6-25.18,0-34.79l5.8-5.8c9.6-9.61,25.18-9.61,34.79,0,9.6,9.61,9.6,25.18,0,34.79l-5.8,5.8c-9.61,9.61-25.18,9.61-34.79,0"/><path class="cls-2" d="M92.54,481.36c-9.61-9.61-9.61-25.19,0-34.8l5.8-5.79c9.6-9.61,25.18-9.61,34.79,0,9.6,9.6,9.6,25.18,0,34.79l-5.8,5.8c-9.61,9.6-25.19,9.6-34.79,0"/><path class="cls-2" d="M157.69,529.55c-9.6-9.6-9.6-25.18,0-34.78l75.39-75.39c9.6-9.61,25.18-9.61,34.79,0,9.6,9.6,9.6,25.19,0,34.78l-75.39,75.39c-9.6,9.62-25.18,9.62-34.79,0"/><path class="cls-2" d="M275.12,412.12c-9.61-9.6-9.61-25.18,0-34.79l5.8-5.8c9.6-9.61,25.18-9.61,34.79,0,9.61,9.61,9.61,25.19,0,34.79l-5.8,5.8c-9.6,9.62-25.18,9.62-34.79,0"/><path class="cls-2" d="M441.42,816.19c-9.6-9.6-9.6-25.18,0-34.78l5.79-5.81c9.61-9.6,25.19-9.6,34.79,0,9.61,9.61,9.61,25.19,0,34.8l-5.78,5.79c-9.61,9.62-25.19,9.62-34.8,0"/><path class="cls-2" d="M497.96,759.65c-9.6-9.61-9.6-25.18,0-34.79l66.69-66.69c9.61-9.61,25.18-9.61,34.79,0,9.61,9.61,9.61,25.2,0,34.79l-66.68,66.69c-9.62,9.61-25.19,9.61-34.8,0"/><path class="cls-2" d="M606.53,651.09c-9.61-9.61-9.61-25.19,0-34.79l5.8-5.8c9.6-9.61,25.18-9.61,34.79,0,9.6,9.6,9.6,25.18,0,34.79l-5.8,5.8c-9.61,9.61-25.19,9.61-34.79,0"/><path class="cls-2" d="M236.9,565.27c-9.61-9.6-25.18-9.6-34.79,0l-5.8,5.8c-9.61,9.61-9.61,25.19,0,34.8,9.61,9.61,25.18,9.61,34.79,0l5.8-5.79c9.6-9.62,9.6-25.19,0-34.8"/><path class="cls-2" d="M330.81,584.71c-9.61-9.62-25.18-9.62-34.79,0l-68.1,68.1c-9.62,9.61-9.62,25.18,0,34.79,9.6,9.61,25.18,9.61,34.79,0l68.09-68.11c9.61-9.61,9.61-25.18,0-34.78"/><path class="cls-2" d="M432.07,711.16c-9.6-9.61-25.18-9.61-34.78,0l-79.74,79.73c-9.6,9.61-9.6,25.18,0,34.8,9.61,9.6,25.19,9.6,34.79,0l79.73-79.75c9.62-9.6,9.62-25.17,0-34.78"/><path class="cls-2" d="M479.92,663.32c-9.61-9.61-25.19-9.61-34.79,0l-5.8,5.8c-9.6,9.6-9.6,25.18,0,34.79,9.61,9.6,25.19,9.6,34.79,0l5.8-5.8c9.61-9.61,9.61-25.18,0-34.79"/><path class="cls-2" d="M535.68,379.83c-9.61-9.6-25.19-9.6-34.79,0l-82.69,82.68c-9.61,9.62-9.61,25.19,0,34.8,9.6,9.61,25.19,9.61,34.79,0l82.69-82.68c9.61-9.61,9.61-25.19,0-34.8"/><path class="cls-2" d="M432.44,254.81c-9.61-9.61-25.19-9.61-34.79,0l-58.74,58.74c-9.61,9.6-9.61,25.19,0,34.79,9.6,9.61,25.19,9.61,34.79,0l58.74-58.74c9.6-9.6,9.6-25.19,0-34.79"/><path class="cls-2" d="M189.05,613.11c-9.6-9.61-25.18-9.61-34.79,0l-39.99,39.99c-9.61,9.6-9.61,25.18,0,34.78,9.6,9.61,25.19,9.61,34.79,0l39.99-39.98c9.6-9.61,9.6-25.18,0-34.79"/><path class="cls-2" d="M583.52,331.99c-9.61-9.6-25.19-9.6-34.79,0l-5.8,5.8c-9.6,9.61-9.6,25.18,0,34.8,9.61,9.6,25.18,9.6,34.79,0l5.8-5.81c9.6-9.61,9.6-25.18,0-34.79"/><path class="cls-2" d="M542.12,487.77c-9.61-9.62-25.18-9.62-34.79,0l-5.8,5.79c-9.6,9.6-9.6,25.18,0,34.78,9.61,9.61,25.19,9.61,34.79,0l5.8-5.79c9.61-9.6,9.61-25.19,0-34.78"/><path class="cls-2" d="M204.72,710.79c-9.61-9.6-25.19-9.6-34.79,0l-5.8,5.8c-9.61,9.61-9.61,25.18,0,34.79,9.61,9.61,25.19,9.61,34.79,0l5.8-5.79c9.62-9.61,9.62-25.19,0-34.8"/><path class="cls-2" d="M610.39,532.84c-9.6-9.61-25.18-9.61-34.79,0l-75.38,75.39c-9.61,9.6-9.61,25.18,0,34.79,9.6,9.6,25.18,9.6,34.79,0l75.38-75.39c9.61-9.6,9.61-25.19,0-34.79"/><path class="cls-2" d="M658.23,485c-9.6-9.61-25.18-9.61-34.79,0l-5.79,5.8c-9.61,9.6-9.61,25.18,0,34.78,9.6,9.61,25.19,9.61,34.79,0l5.79-5.79c9.62-9.61,9.62-25.18,0-34.79"/></g><path class="cls-3" d="M450.42,384.97c9.5-9.7,9.35-25.29-.35-34.79-9.71-9.51-25.28-9.36-34.8.34l-157.18,160.31c-9.51,9.7-9.36,25.28.35,34.79,4.79,4.69,11.01,7.05,17.23,7.05s12.75-2.47,17.56-7.38l157.19-160.31Z"/><path class="cls-3" d="M489.42,537c-9.71-9.51-25.29-9.36-34.79.34l-157.18,160.31c-9.51,9.7-9.36,25.28.34,34.79,4.79,4.69,11.01,7.04,17.23,7.04s12.75-2.47,17.56-7.38l157.19-160.31c9.5-9.71,9.35-25.29-.35-34.79"/><path class="cls-3" d="M369.96,510.22l-27.21,27.74c-9.5,9.7-9.35,25.28.34,34.8,4.8,4.69,11.01,7.03,17.23,7.03s12.76-2.47,17.57-7.38l27.2-27.74c9.51-9.7,9.35-25.28-.35-34.79-9.71-9.51-25.29-9.36-34.79.34"/><path class="cls-3" d="M1489.86,765.22h-85.73c-28.97,0-52.47-23.49-52.47-52.47v-320.15c0-28.98,23.5-52.47,52.47-52.47h86.32c64.35,0,116.02,19.18,154.98,57.56,38.98,38.36,58.45,90.14,58.45,155.29s-19.47,116.82-58.45,154.98c-38.96,38.18-90.83,57.26-155.58,57.26M1446.4,648.78c0,14.97,12.14,27.1,27.11,27.1h12.76c34.77,0,63.26-10.39,85.44-31.18,22.18-20.78,33.27-51.35,33.27-91.73s-11.09-71.55-33.27-92.33c-22.19-20.78-50.67-31.18-85.44-31.18h-14.9c-13.79,0-24.97,11.18-24.97,24.96v194.36Z"/><path class="cls-3" d="M1788.84,764.8c-26.04,0-47.16-21.11-47.16-47.16v-193.39c0-26.05,21.11-47.17,47.16-47.17s47.16,21.11,47.16,47.17v193.39c0,26.04-21.11,47.16-47.16,47.16"/><path class="cls-3" d="M1255.58,764.18c-26.04,0-47.16-21.11-47.16-47.16v-192.76c0-26.05,21.11-47.17,47.16-47.17s47.16,21.11,47.16,47.17v192.76c0,26.04-21.11,47.16-47.16,47.16"/><path class="cls-3" d="M1134.1,543.52c-21.71-23.73-52.41-39.23-92.14-46.54l-57.77-10.94c-28.39-5.27-42.57-19.05-42.57-41.35,0-12.56,5.48-23.42,16.43-32.53,10.94-9.13,25.13-13.69,42.57-13.69,23.11,0,40.34,5.68,51.69,17.03,2.83,2.83,5.38,5.73,7.63,8.69,2.01,2.63,4.35,4.84,6.83,6.86,8.06,7.27,18.61,11.8,30.32,11.8,6.05,0,11.81-1.22,17.1-3.38.1-.03.19-.04.3-.07v-.03c16.48-6.83,28.07-23.05,28.07-41.99,0-6.83-1.61-13.24-4.31-19.04l.06-.14c-.35-.6-.74-1.18-1.08-1.76-1.64-3.12-3.59-6.01-5.88-8.67-3.33-4.32-7.57-9.12-13.97-15.54-11.76-11.74-27.67-21.17-47.74-28.27-20.07-7.09-42.87-10.64-68.41-10.64-42.17,0-78.44,13.17-108.85,39.52-30.41,26.36-45.62,59.39-45.62,99.13,0,32.03,10.44,59.39,31.32,82.1,20.88,22.71,49.57,37.5,86.06,44.39l58.99,10.94c14.59,2.84,25.94,8.02,34.04,15.51,8.11,7.5,12.17,16.72,12.17,27.67,0,13.38-5.47,24.23-16.42,32.54-10.95,8.31-25.74,12.47-44.39,12.47-27.97,0-49.37-7-64.16-20.99-5.92-5.6-10.82-11.8-14.69-18.58-10.84-19.01-32.14-29.43-53.41-24.29-28.52,6.88-42.6,39.05-28.37,64.72,8.21,14.82,19.29,28.83,33.23,42,29.8,28.18,71.85,42.27,126.18,42.27,48.65,0,87.36-13.69,116.15-41.05,28.78-27.37,43.17-59.09,43.17-95.17,0-31.63-10.85-59.3-32.52-83.01"/><circle class="cls-3" cx="1255.59" cy="387.28" r="47.16"/><circle class="cls-3" cx="1788.84" cy="387.28" r="47.16"/></svg>